<svg width="194" height="56" viewBox="0 0 194 56" fill="none" xmlns="http://www.w3.org/2000/svg">
<path d="M186.41 56H7.16962C3.22812 56 0 52.8482 0 49V7C0 3.15175 3.22812 2.95956e-06 7.16962 2.95956e-06H186.41C190.352 2.95956e-06 193.58 3.15175 193.58 7V49C193.58 52.8482 190.352 56 186.41 56Z" fill="#28282F"/>
<path d="M186.41 1.12175C189.73 1.12175 192.431 3.759 192.431 7V49C192.431 52.241 189.73 54.8783 186.41 54.8783H7.16962C3.85008 54.8783 1.14893 52.241 1.14893 49V7C1.14893 3.759 3.85008 1.12175 7.16962 1.12175H186.41ZM186.41 2.95956e-06H7.16962C3.22812 2.95956e-06 0 3.15175 0 7V49C0 52.8482 3.22812 56 7.16962 56H186.41C190.352 56 193.58 52.8482 193.58 49V7C193.58 3.15175 190.352 2.95956e-06 186.41 2.95956e-06Z" fill="#28282F"/>
<path d="M67.9929 14.3416C67.9929 15.5106 67.6344 16.4468 66.9282 17.1451C66.1162 17.9728 65.0587 18.3893 63.7628 18.3893C62.5243 18.3893 61.4667 17.9658 60.5992 17.1311C59.7299 16.2841 59.2961 15.2446 59.2961 14.0003C59.2961 12.7561 59.7299 11.7166 60.5992 10.8766C61.4667 10.0348 62.5243 9.61133 63.7628 9.61133C64.3794 9.61133 64.9673 9.73558 65.5283 9.96658C66.0876 10.1993 66.5428 10.5143 66.8726 10.9028L66.1234 11.6413C65.548 10.9781 64.7648 10.6508 63.7628 10.6508C62.8594 10.6508 62.0762 10.9588 61.4112 11.5801C60.7534 12.2031 60.4236 13.0098 60.4236 14.0003C60.4236 14.9908 60.7534 15.8046 61.4112 16.4276C62.0762 17.0418 62.8594 17.3568 63.7628 17.3568C64.7218 17.3568 65.5283 17.0418 66.1646 16.4206C66.5841 16.0093 66.8225 15.4423 66.8852 14.7178H63.7628V13.7063H67.9284C67.9785 13.9251 67.9929 14.1368 67.9929 14.3416Z" fill="white" stroke="white" stroke-width="0.16" stroke-miterlimit="10"/>
<path d="M74.6016 10.8342H70.6888V13.4942H74.2162V14.5057H70.6888V17.1657H74.6016V18.1965H69.5811V9.80347H74.6016V10.8342Z" fill="white" stroke="white" stroke-width="0.16" stroke-miterlimit="10"/>
<path d="M79.2653 18.1965H78.1576V10.8342H75.7576V9.80347H81.6671V10.8342H79.2653V18.1965Z" fill="white" stroke="white" stroke-width="0.16" stroke-miterlimit="10"/>
<path d="M85.9441 18.1965V9.80347H87.05V18.1965H85.9441Z" fill="white" stroke="white" stroke-width="0.16" stroke-miterlimit="10"/>
<path d="M91.9521 18.1965H90.8533V10.8342H88.4443V9.80347H94.361V10.8342H91.9521V18.1965Z" fill="white" stroke="white" stroke-width="0.16" stroke-miterlimit="10"/>
<path d="M105.549 17.1171C104.702 17.9658 103.651 18.3893 102.398 18.3893C101.138 18.3893 100.088 17.9658 99.2401 17.1171C98.3941 16.2701 97.9729 15.2306 97.9729 14.0003C97.9729 12.7701 98.3941 11.7306 99.2401 10.8836C100.088 10.0348 101.138 9.61133 102.398 9.61133C103.644 9.61133 104.694 10.0348 105.542 10.8906C106.395 11.7446 106.817 12.7771 106.817 14.0003C106.817 15.2306 106.395 16.2701 105.549 17.1171ZM100.059 16.4136C100.697 17.0418 101.473 17.3568 102.398 17.3568C103.316 17.3568 104.099 17.0418 104.73 16.4136C105.367 15.7853 105.689 14.9786 105.689 14.0003C105.689 13.0221 105.367 12.2153 104.73 11.5871C104.099 10.9588 103.316 10.6438 102.398 10.6438C101.473 10.6438 100.697 10.9588 100.059 11.5871C99.423 12.2153 99.1003 13.0221 99.1003 14.0003C99.1003 14.9786 99.423 15.7853 100.059 16.4136Z" fill="white" stroke="white" stroke-width="0.16" stroke-miterlimit="10"/>
<path d="M108.371 18.1965V9.80347H109.715L113.895 16.331H113.943L113.895 14.7175V9.80347H115.001V18.1965H113.846L109.469 11.347H109.421L109.469 12.9675V18.1965H108.371Z" fill="white" stroke="white" stroke-width="0.16" stroke-miterlimit="10"/>
<path d="M97.7003 30.454C94.3324 30.454 91.581 32.9565 91.581 36.4092C91.581 39.834 94.3324 42.3627 97.7003 42.3627C101.075 42.3627 103.827 39.834 103.827 36.4092C103.827 32.9565 101.075 30.454 97.7003 30.454ZM97.7003 40.0177C95.8523 40.0177 94.2625 38.5285 94.2625 36.4092C94.2625 34.262 95.8523 32.799 97.7003 32.799C99.5483 32.799 101.145 34.262 101.145 36.4092C101.145 38.5285 99.5483 40.0177 97.7003 40.0177ZM84.3487 30.454C80.9736 30.454 78.2294 32.9565 78.2294 36.4092C78.2294 39.834 80.9736 42.3627 84.3487 42.3627C87.722 42.3627 90.4679 39.834 90.4679 36.4092C90.4679 32.9565 87.722 30.454 84.3487 30.454ZM84.3487 40.0177C82.4989 40.0177 80.9037 38.5285 80.9037 36.4092C80.9037 34.262 82.4989 32.799 84.3487 32.799C86.1966 32.799 87.7865 34.262 87.7865 36.4092C87.7865 38.5285 86.1966 40.0177 84.3487 40.0177ZM68.4608 32.2792V34.8097H74.65C74.4689 36.2237 73.985 37.2632 73.2429 37.9877C72.3396 38.8627 70.9325 39.834 68.4608 39.834C64.6519 39.834 61.6694 36.8327 61.6694 33.114C61.6694 29.3952 64.6519 26.394 68.4608 26.394C70.5203 26.394 72.0187 27.1797 73.1246 28.1982L74.9511 26.415C73.4043 24.973 71.3466 23.8652 68.4608 23.8652C63.2377 23.8652 58.8481 28.0145 58.8481 33.114C58.8481 38.2135 63.2377 42.3627 68.4608 42.3627C71.2838 42.3627 73.4043 41.4597 75.0712 39.7657C76.7794 38.098 77.3117 35.753 77.3117 33.8595C77.3117 33.2715 77.2615 32.7307 77.1719 32.2792H68.4608ZM133.428 34.241C132.925 32.9092 131.371 30.454 128.205 30.454C125.069 30.454 122.457 32.8672 122.457 36.4092C122.457 39.7447 125.042 42.3627 128.506 42.3627C131.308 42.3627 132.925 40.695 133.59 39.7237L131.51 38.371C130.817 39.3615 129.872 40.0177 128.506 40.0177C127.149 40.0177 126.176 39.4105 125.552 38.2135L133.71 34.9182L133.428 34.241ZM125.112 36.2237C125.042 33.9277 126.938 32.7517 128.297 32.7517C129.361 32.7517 130.265 33.2715 130.566 34.0152L125.112 36.2237ZM118.481 42.0005H121.163V24.5005H118.481V42.0005ZM114.09 31.7805H114C113.398 31.084 112.249 30.454 110.794 30.454C107.74 30.454 104.947 33.072 104.947 36.4285C104.947 39.7657 107.74 42.3627 110.794 42.3627C112.249 42.3627 113.398 41.7275 114 41.01H114.09V41.864C114.09 44.1407 112.844 45.364 110.835 45.364C109.197 45.364 108.18 44.209 107.761 43.2377L105.429 44.188C106.101 45.7665 107.881 47.709 110.835 47.709C113.979 47.709 116.632 45.903 116.632 41.5087V30.8162H114.09V31.7805ZM111.023 40.0177C109.175 40.0177 107.628 38.5075 107.628 36.4285C107.628 34.3302 109.175 32.799 111.023 32.799C112.844 32.799 114.28 34.3302 114.28 36.4285C114.28 38.5075 112.844 40.0177 111.023 40.0177ZM145.982 24.5005H139.569V42.0005H142.243V35.3697H145.982C148.952 35.3697 151.865 33.2715 151.865 29.9342C151.865 26.5987 148.945 24.5005 145.982 24.5005ZM146.052 32.9355H142.243V26.9347H146.052C148.049 26.9347 149.189 28.5535 149.189 29.9342C149.189 31.2887 148.049 32.9355 146.052 32.9355ZM162.584 30.4207C160.651 30.4207 158.642 31.2537 157.816 33.1L160.189 34.0712C160.7 33.1 161.639 32.785 162.632 32.785C164.019 32.785 165.426 33.5987 165.448 35.0355V35.2192C164.964 34.9462 163.928 34.542 162.653 34.542C160.097 34.542 157.493 35.9157 157.493 38.4795C157.493 40.8245 159.587 42.3347 161.94 42.3347C163.74 42.3347 164.733 41.542 165.356 40.6197H165.448V41.9725H168.031V35.2595C168.031 32.1567 165.657 30.4207 162.584 30.4207ZM162.261 40.0107C161.386 40.0107 160.167 39.5872 160.167 38.5285C160.167 37.174 161.687 36.6542 163.003 36.6542C164.181 36.6542 164.733 36.908 165.448 37.2422C165.238 38.8627 163.81 40.0107 162.261 40.0107ZM177.441 30.804L174.367 38.3902H174.275L171.097 30.804H168.213L172.988 41.4055L170.264 47.3047H173.058L180.416 30.804H177.441ZM153.335 42.0005H156.016V24.5005H153.335V42.0005Z" fill="white"/>
<path d="M14.9631 10.5541C14.5419 10.9846 14.2981 11.6549 14.2981 12.5229V43.4839C14.2981 44.3519 14.5419 45.0221 14.9631 45.4526L15.067 45.5471L32.8369 28.2046V27.7951L15.067 10.4526L14.9631 10.5541Z" fill="url(#paint0_linear_1_8532)"/>
<path d="M38.7536 33.9883L32.8369 28.2045V27.795L38.7608 22.0113L38.8934 22.0865L45.9089 25.9838C47.911 27.0898 47.911 28.9098 45.9089 30.0228L38.8934 33.913L38.7536 33.9883Z" fill="url(#paint1_linear_1_8532)"/>
<path d="M38.8933 33.9132L32.8367 28L14.9629 45.4527C15.6279 46.1352 16.7123 46.2175 17.9455 45.535L38.8933 33.9132Z" fill="url(#paint2_linear_1_8532)"/>
<path d="M38.8933 22.0868L17.9455 10.465C16.7123 9.78951 15.6279 9.87175 14.9629 10.5543L32.8367 28L38.8933 22.0868Z" fill="url(#paint3_linear_1_8532)"/>
<defs>
<linearGradient id="paint0_linear_1_8532" x1="31.2592" y1="43.8063" x2="7.77055" y2="19.7485" gradientUnits="userSpaceOnUse">
<stop stop-color="#00A0FF"/>
<stop offset="0.0066" stop-color="#00A1FF"/>
<stop offset="0.2601" stop-color="#00BEFF"/>
<stop offset="0.5122" stop-color="#00D2FF"/>
<stop offset="0.7604" stop-color="#00DFFF"/>
<stop offset="1" stop-color="#00E3FF"/>
</linearGradient>
<linearGradient id="paint1_linear_1_8532" x1="48.516" y1="27.9978" x2="13.8195" y2="27.9978" gradientUnits="userSpaceOnUse">
<stop stop-color="#FFE000"/>
<stop offset="0.4087" stop-color="#FFBD00"/>
<stop offset="0.7754" stop-color="#FFA500"/>
<stop offset="1" stop-color="#FF9C00"/>
</linearGradient>
<linearGradient id="paint2_linear_1_8532" x1="35.5999" y1="24.7854" x2="3.74743" y2="-7.83889" gradientUnits="userSpaceOnUse">
<stop stop-color="#FF3A44"/>
<stop offset="1" stop-color="#C31162"/>
</linearGradient>
<linearGradient id="paint3_linear_1_8532" x1="10.4637" y1="55.7533" x2="24.6872" y2="41.1852" gradientUnits="userSpaceOnUse">
<stop stop-color="#32A071"/>
<stop offset="0.0685" stop-color="#2DA771"/>
<stop offset="0.4762" stop-color="#15CF74"/>
<stop offset="0.8009" stop-color="#06E775"/>
<stop offset="1" stop-color="#00F076"/>
</linearGradient>
</defs>
</svg>
