<svg width="194" height="56" viewBox="0 0 194 56" fill="none" xmlns="http://www.w3.org/2000/svg">
<path d="M192.769 49.5413C192.769 52.5256 190.301 54.9429 187.249 54.9429H6.60414C3.55329 54.9429 1.0769 52.5256 1.0769 49.5413V6.46486C1.0769 3.48196 3.55329 1.05615 6.60414 1.05615H187.248C190.301 1.05615 192.768 3.48196 192.768 6.46486L192.769 49.5413Z" fill="#28282F"/>
<path d="M186.667 1.12175C189.991 1.12175 192.696 3.759 192.696 7V49C192.696 52.241 189.991 54.8783 186.667 54.8783H7.17949C3.85538 54.8783 1.15051 52.241 1.15051 49V7C1.15051 3.759 3.85538 1.12175 7.17949 1.12175H186.667ZM186.667 2.95956e-06H7.17949C3.23256 2.95956e-06 0 3.15175 0 7V49C0 52.8482 3.23256 56 7.17949 56H186.667C190.614 56 193.846 52.8482 193.846 49V7C193.846 3.15175 190.614 2.95956e-06 186.667 2.95956e-06Z" fill="#28282F"/>
<path d="M43.2608 27.6977C43.2191 23.1855 47.0501 20.9903 47.2253 20.8881C45.0557 17.8039 41.6928 17.3825 40.511 17.3489C37.6866 17.0591 34.9469 18.9967 33.5082 18.9967C32.0407 18.9967 29.8251 17.3769 27.4372 17.4245C24.3644 17.4707 21.4897 19.2053 19.9131 21.8989C16.6593 27.3911 19.086 35.4621 22.2033 39.9015C23.7627 42.0757 25.5849 44.5033 27.9699 44.4179C30.3032 44.3241 31.1748 42.9675 33.9906 42.9675C36.7806 42.9675 37.599 44.4179 40.0314 44.3633C42.5356 44.3241 44.1123 42.1793 45.6171 39.9855C47.4191 37.4935 48.1428 35.0393 48.1715 34.9133C48.1127 34.8937 43.3082 33.1059 43.2608 27.6977Z" fill="white"/>
<path d="M38.6659 14.4285C39.9209 12.8983 40.7795 10.8165 40.5412 8.70386C38.7248 8.78226 36.4532 9.92886 35.1451 11.4255C33.9878 12.7443 32.9539 14.9059 33.221 16.9387C35.2614 17.0871 37.3564 15.9349 38.6659 14.4285Z" fill="white"/>
<path d="M77.0285 44.1053H73.7676L71.9814 38.6327H65.7725L64.071 44.1053H60.8962L67.0476 25.4741H70.847L77.0285 44.1053ZM71.4429 36.3367L69.8275 31.4717C69.6566 30.9747 69.3364 29.8043 68.864 27.9619H68.8066C68.6185 28.7543 68.3155 29.9247 67.8991 31.4717L66.3124 36.3367H71.4429Z" fill="white"/>
<path d="M92.848 37.2228C92.848 39.5076 92.2148 41.3136 90.9483 42.6394C89.8139 43.8196 88.4053 44.409 86.7239 44.409C84.9089 44.409 83.6051 43.7734 82.8111 42.5022H82.7536V49.5792H79.6923V35.0934C79.6923 33.657 79.6535 32.1828 79.5789 30.6708H82.2712L82.442 32.8002H82.4995C83.5204 31.1958 85.0697 30.395 87.1489 30.395C88.7743 30.395 90.1313 31.0208 91.2168 32.2738C92.3052 33.5282 92.848 35.1774 92.848 37.2228ZM89.7292 37.332C89.7292 36.0244 89.4277 34.9464 88.8217 34.098C88.1598 33.2132 87.271 32.7708 86.1567 32.7708C85.4014 32.7708 84.7151 33.0172 84.1019 33.503C83.4874 33.993 83.0853 34.6328 82.8972 35.4252C82.8024 35.7948 82.7551 36.0972 82.7551 36.3352V38.5752C82.7551 39.5524 83.0623 40.377 83.6769 41.0504C84.2915 41.7238 85.0898 42.0598 86.072 42.0598C87.225 42.0598 88.1224 41.6258 88.7643 40.7606C89.4076 39.894 89.7292 38.7516 89.7292 37.332Z" fill="white"/>
<path d="M108.696 37.2228C108.696 39.5076 108.063 41.3136 106.795 42.6394C105.662 43.8196 104.253 44.409 102.572 44.409C100.757 44.409 99.453 43.7734 98.6604 42.5022H98.603V49.5792H95.5417V35.0934C95.5417 33.657 95.5029 32.1828 95.4282 30.6708H98.1205L98.2914 32.8002H98.3488C99.3683 31.1958 100.918 30.395 102.998 30.395C104.622 30.395 105.979 31.0208 107.068 32.2738C108.152 33.5282 108.696 35.1774 108.696 37.2228ZM105.577 37.332C105.577 36.0244 105.274 34.9464 104.668 34.098C104.006 33.2132 103.12 32.7708 102.005 32.7708C101.248 32.7708 100.563 33.0172 99.9484 33.503C99.3339 33.993 98.9332 34.6328 98.7451 35.4252C98.6518 35.7948 98.603 36.0972 98.603 36.3352V38.5752C98.603 39.5524 98.9103 40.377 99.522 41.0504C100.137 41.7224 100.935 42.0598 101.92 42.0598C103.073 42.0598 103.97 41.6258 104.612 40.7606C105.256 39.894 105.577 38.7516 105.577 37.332Z" fill="white"/>
<path d="M126.415 38.8808C126.415 40.4656 125.851 41.755 124.718 42.7504C123.473 43.8382 121.74 44.3814 119.512 44.3814C117.456 44.3814 115.808 43.995 114.56 43.2208L115.269 40.733C116.613 41.5254 118.088 41.923 119.695 41.923C120.848 41.923 121.745 41.6682 122.39 41.1614C123.032 40.6546 123.352 39.9742 123.352 39.1258C123.352 38.3698 123.088 37.7328 122.558 37.2162C122.031 36.6996 121.151 36.2194 119.922 35.7756C116.576 34.559 114.905 32.7768 114.905 30.4332C114.905 28.9016 115.491 27.6458 116.664 26.6686C117.832 25.69 119.392 25.2014 121.342 25.2014C123.081 25.2014 124.525 25.4968 125.678 26.0862L124.913 28.5194C123.836 27.9482 122.618 27.6626 121.256 27.6626C120.179 27.6626 119.337 27.9216 118.734 28.4368C118.224 28.8974 117.969 29.4588 117.969 30.1238C117.969 30.8602 118.26 31.4692 118.846 31.948C119.356 32.3904 120.282 32.8692 121.626 33.3858C123.27 34.0312 124.478 34.7858 125.255 35.651C126.029 36.5134 126.415 37.5928 126.415 38.8808Z" fill="white"/>
<path d="M136.536 32.9114H133.162V39.434C133.162 41.093 133.757 41.9218 134.948 41.9218C135.495 41.9218 135.949 41.8756 136.308 41.7832L136.393 44.0498C135.79 44.2696 134.996 44.3802 134.012 44.3802C132.803 44.3802 131.858 44.0204 131.176 43.3022C130.497 42.5826 130.155 41.3758 130.155 39.6804V32.9086H128.145V30.6686H130.155V28.2088L133.162 27.324V30.6686H136.536V32.9114Z" fill="white"/>
<path d="M151.761 37.2777C151.761 39.3427 151.155 41.0381 149.946 42.3639C148.679 43.7289 146.996 44.4093 144.898 44.4093C142.876 44.4093 141.266 43.7555 140.066 42.4479C138.866 41.1403 138.265 39.4897 138.265 37.5003C138.265 35.4185 138.883 33.7133 140.122 32.3875C141.358 31.0603 143.027 30.3967 145.125 30.3967C147.146 30.3967 148.773 31.0505 150.001 32.3595C151.176 33.6293 151.761 35.2687 151.761 37.2777ZM148.585 37.3743C148.585 36.1353 148.314 35.0727 147.764 34.1865C147.122 33.1141 146.204 32.5793 145.016 32.5793C143.785 32.5793 142.85 33.1155 142.208 34.1865C141.658 35.0741 141.387 36.1535 141.387 37.4303C141.387 38.6693 141.658 39.7319 142.208 40.6167C142.87 41.6891 143.795 42.2239 144.988 42.2239C146.157 42.2239 147.075 41.6779 147.737 40.5887C148.301 39.6857 148.585 38.6119 148.585 37.3743Z" fill="white"/>
<path d="M161.712 33.2958C161.409 33.2412 161.086 33.2132 160.747 33.2132C159.67 33.2132 158.837 33.6094 158.251 34.4032C157.742 35.1032 157.486 35.988 157.486 37.0562V44.1052H154.426L154.455 34.9016C154.455 33.3532 154.416 31.9434 154.34 30.6722H157.007L157.119 33.2426H157.203C157.526 32.3592 158.036 31.648 158.734 31.1146C159.416 30.6344 160.153 30.395 160.947 30.395C161.23 30.395 161.485 30.4146 161.712 30.4496V33.2958Z" fill="white"/>
<path d="M175.403 36.7527C175.403 37.2875 175.367 37.7383 175.291 38.1065H166.107C166.143 39.4337 166.587 40.4487 167.44 41.1487C168.214 41.7745 169.215 42.0881 170.444 42.0881C171.803 42.0881 173.044 41.8767 174.16 41.4525L174.639 43.5245C173.336 44.0789 171.796 44.3547 170.02 44.3547C167.883 44.3547 166.206 43.7415 164.986 42.5165C163.768 41.2915 163.158 39.6465 163.158 37.5829C163.158 35.5571 163.725 33.8701 164.861 32.5247C166.05 31.0883 167.657 30.3701 169.678 30.3701C171.664 30.3701 173.168 31.0883 174.189 32.5247C174.997 33.6657 175.403 35.0769 175.403 36.7527ZM172.484 35.9785C172.504 35.0937 172.305 34.3293 171.89 33.6839C171.36 32.8537 170.546 32.4393 169.45 32.4393C168.449 32.4393 167.635 32.8439 167.013 33.6559C166.504 34.3013 166.201 35.0755 166.107 35.9771H172.484V35.9785Z" fill="white"/>
<path d="M70.4309 14.0122C70.4309 15.66 69.924 16.9004 68.9117 17.7334C67.9741 18.502 66.6415 18.887 64.9156 18.887C64.0598 18.887 63.3275 18.8506 62.7144 18.7778V9.77438C63.5142 9.64838 64.3757 9.58398 65.3062 9.58398C66.9503 9.58398 68.1894 9.93258 69.0251 10.6298C69.9613 11.418 70.4309 12.545 70.4309 14.0122ZM68.8442 14.0528C68.8442 12.9846 68.5542 12.1656 67.9741 11.5944C67.394 11.0246 66.5468 10.739 65.4311 10.739C64.9572 10.739 64.5537 10.7698 64.2192 10.8342V17.6788C64.4044 17.7068 64.7433 17.7194 65.2358 17.7194C66.3874 17.7194 67.2762 17.4072 67.9023 16.7828C68.5283 16.1584 68.8442 15.2484 68.8442 14.0528Z" fill="white"/>
<path d="M78.8439 15.4509C78.8439 16.4659 78.5467 17.2975 77.9522 17.9499C77.329 18.6205 76.5034 18.9551 75.4724 18.9551C74.4788 18.9551 73.6876 18.6345 73.0974 17.9905C72.5087 17.3479 72.2144 16.5373 72.2144 15.5601C72.2144 14.5381 72.5173 13.6995 73.1261 13.0485C73.735 12.3975 74.5534 12.0713 75.5844 12.0713C76.5781 12.0713 77.3764 12.3919 77.9809 13.0345C78.5553 13.6589 78.8439 14.4653 78.8439 15.4509ZM77.2831 15.4985C77.2831 14.8895 77.1481 14.3673 76.8796 13.9319C76.5637 13.4055 76.1143 13.1423 75.5298 13.1423C74.9253 13.1423 74.4658 13.4055 74.1499 13.9319C73.88 14.3673 73.7465 14.8979 73.7465 15.5251C73.7465 16.1341 73.8814 16.6563 74.1499 17.0917C74.4759 17.6181 74.9296 17.8813 75.5155 17.8813C76.0898 17.8813 76.5407 17.6139 76.8652 17.0777C77.1438 16.6339 77.2831 16.1075 77.2831 15.4985Z" fill="white"/>
<path d="M90.1243 12.2063L88.0064 18.8059H86.6279L85.7506 15.9401C85.528 15.2247 85.3471 14.5135 85.2064 13.8079H85.1791C85.0484 14.5331 84.8675 15.2429 84.6349 15.9401L83.703 18.8059H82.3087L80.3171 12.2063H81.8636L82.6289 15.3437C82.8142 16.0857 82.9664 16.7927 83.0884 17.4619H83.1157C83.2277 16.9103 83.4129 16.2075 83.6743 15.3577L84.6349 12.2077H85.8611L86.7815 15.2905C87.0041 16.0423 87.185 16.7661 87.3243 17.4633H87.366C87.4679 16.7843 87.6215 16.0605 87.8254 15.2905L88.6468 12.2077H90.1243V12.2063Z" fill="white"/>
<path d="M97.9255 18.8053H96.4207V15.0253C96.4207 13.8605 95.967 13.2781 95.0566 13.2781C94.6101 13.2781 94.2497 13.4377 93.9697 13.7583C93.6925 14.0789 93.5518 14.4569 93.5518 14.8895V18.8039H92.047V14.0915C92.047 13.5119 92.0283 12.8833 91.9924 12.2029H93.3149L93.3853 13.2347H93.4269C93.6021 12.9141 93.8634 12.6495 94.2066 12.4381C94.6144 12.1917 95.071 12.0671 95.5707 12.0671C96.2025 12.0671 96.728 12.2659 97.1459 12.6649C97.6656 13.1535 97.9255 13.8829 97.9255 14.8517V18.8053Z" fill="white"/>
<path d="M102.075 18.8058H100.572V9.17798H102.075V18.8058Z" fill="white"/>
<path d="M110.935 15.4509C110.935 16.4659 110.637 17.2975 110.043 17.9499C109.42 18.6205 108.593 18.9551 107.563 18.9551C106.568 18.9551 105.777 18.6345 105.188 17.9905C104.6 17.3479 104.305 16.5373 104.305 15.5601C104.305 14.5381 104.608 13.6995 105.217 13.0485C105.826 12.3975 106.644 12.0713 107.674 12.0713C108.669 12.0713 109.466 12.3919 110.072 13.0345C110.646 13.6589 110.935 14.4653 110.935 15.4509ZM109.372 15.4985C109.372 14.8895 109.237 14.3673 108.969 13.9319C108.655 13.4055 108.204 13.1423 107.621 13.1423C107.015 13.1423 106.555 13.4055 106.241 13.9319C105.971 14.3673 105.837 14.8979 105.837 15.5251C105.837 16.1341 105.972 16.6563 106.241 17.0917C106.567 17.6181 107.02 17.8813 107.606 17.8813C108.181 17.8813 108.63 17.6139 108.955 17.0777C109.235 16.6339 109.372 16.1075 109.372 15.4985Z" fill="white"/>
<path d="M118.217 18.8053H116.866L116.754 18.0451H116.712C116.25 18.6513 115.591 18.9551 114.735 18.9551C114.096 18.9551 113.579 18.7549 113.19 18.3573C112.837 17.9961 112.66 17.5467 112.66 17.0133C112.66 16.2069 113.005 15.5923 113.698 15.1667C114.39 14.7411 115.364 14.5325 116.617 14.5423V14.4191C116.617 13.5497 116.149 13.1157 115.212 13.1157C114.544 13.1157 113.955 13.2795 113.447 13.6043L113.141 12.6411C113.77 12.2617 114.547 12.0713 115.463 12.0713C117.232 12.0713 118.119 12.9813 118.119 14.8013V17.2317C118.119 17.8911 118.152 18.4161 118.217 18.8053ZM116.655 16.5373V15.5195C114.995 15.4915 114.165 15.9353 114.165 16.8495C114.165 17.1939 114.26 17.4515 114.454 17.6237C114.647 17.7959 114.894 17.8813 115.189 17.8813C115.519 17.8813 115.828 17.7791 116.109 17.5761C116.392 17.3717 116.566 17.1127 116.63 16.7949C116.646 16.7235 116.655 16.6367 116.655 16.5373Z" fill="white"/>
<path d="M126.768 18.8058H125.433L125.363 17.746H125.321C124.895 18.5524 124.168 18.9556 123.147 18.9556C122.331 18.9556 121.652 18.6434 121.114 18.019C120.575 17.3946 120.307 16.584 120.307 15.5886C120.307 14.5204 120.598 13.6552 121.184 12.9944C121.751 12.3784 122.446 12.0704 123.273 12.0704C124.182 12.0704 124.818 12.3686 125.18 12.9664H125.209V9.17798H126.715V17.0278C126.715 17.6704 126.733 18.2626 126.768 18.8058ZM125.209 16.0226V14.9222C125.209 14.7318 125.195 14.5778 125.167 14.4602C125.083 14.1074 124.9 13.8106 124.623 13.5712C124.343 13.3318 124.006 13.2114 123.617 13.2114C123.055 13.2114 122.616 13.4284 122.293 13.8638C121.973 14.2992 121.81 14.855 121.81 15.534C121.81 16.1864 121.964 16.7156 122.273 17.123C122.599 17.557 123.038 17.774 123.588 17.774C124.082 17.774 124.477 17.5934 124.777 17.2308C125.067 16.8962 125.209 16.493 125.209 16.0226Z" fill="white"/>
<path d="M139.638 15.4509C139.638 16.4659 139.341 17.2975 138.746 17.9499C138.123 18.6205 137.299 18.9551 136.267 18.9551C135.274 18.9551 134.483 18.6345 133.892 17.9905C133.303 17.3479 133.009 16.5373 133.009 15.5601C133.009 14.5381 133.312 13.6995 133.92 13.0485C134.529 12.3975 135.348 12.0713 136.38 12.0713C137.372 12.0713 138.172 12.3919 138.775 13.0345C139.349 13.6589 139.638 14.4653 139.638 15.4509ZM138.079 15.4985C138.079 14.8895 137.944 14.3673 137.675 13.9319C137.358 13.4055 136.91 13.1423 136.324 13.1423C135.721 13.1423 135.261 13.4055 134.944 13.9319C134.674 14.3673 134.541 14.8979 134.541 15.5251C134.541 16.1341 134.676 16.6563 134.944 17.0917C135.27 17.6181 135.724 17.8813 136.31 17.8813C136.884 17.8813 137.336 17.6139 137.661 17.0777C137.938 16.6339 138.079 16.1075 138.079 15.4985Z" fill="white"/>
<path d="M147.73 18.8051H146.226V15.0251C146.226 13.8603 145.772 13.2779 144.861 13.2779C144.414 13.2779 144.054 13.4375 143.775 13.7581C143.497 14.0787 143.357 14.4567 143.357 14.8893V18.8037H141.851V14.0913C141.851 13.5117 141.834 12.8831 141.798 12.2027H143.119L143.189 13.2345H143.231C143.407 12.9139 143.669 12.6493 144.011 12.4379C144.42 12.1915 144.875 12.0669 145.376 12.0669C146.006 12.0669 146.532 12.2657 146.95 12.6647C147.471 13.1533 147.73 13.8827 147.73 14.8515V18.8051Z" fill="white"/>
<path d="M157.857 13.3049H156.2V16.5109C156.2 17.3257 156.494 17.7331 157.077 17.7331C157.347 17.7331 157.571 17.7107 157.748 17.6645L157.787 18.7775C157.489 18.8867 157.099 18.9413 156.618 18.9413C156.023 18.9413 155.561 18.7649 155.227 18.4121C154.891 18.0593 154.724 17.4657 154.724 16.6327V13.3049H153.735V12.2059H154.724V10.9963L156.199 10.5623V12.2045H157.856V13.3049H157.857Z" fill="white"/>
<path d="M165.823 18.8058H164.317V15.0538C164.317 13.8708 163.863 13.2786 162.954 13.2786C162.256 13.2786 161.78 13.6216 161.518 14.3076C161.474 14.4518 161.448 14.6282 161.448 14.8354V18.8044H159.945V9.17798H161.448V13.1554H161.477C161.951 12.4316 162.63 12.0704 163.51 12.0704C164.133 12.0704 164.649 12.2692 165.058 12.6682C165.568 13.1652 165.823 13.9044 165.823 14.8816V18.8058Z" fill="white"/>
<path d="M174.041 15.1932C174.041 15.4564 174.021 15.6776 173.985 15.8582H169.472C169.492 16.5106 169.707 17.0076 170.125 17.352C170.507 17.66 171 17.814 171.603 17.814C172.27 17.814 172.879 17.7104 173.428 17.5018L173.663 18.521C173.021 18.7926 172.266 18.9284 171.392 18.9284C170.343 18.9284 169.518 18.6274 168.92 18.0254C168.32 17.4234 168.023 16.6156 168.023 15.602C168.023 14.6066 168.3 13.7778 168.859 13.117C169.442 12.4114 170.23 12.0586 171.225 12.0586C172.199 12.0586 172.938 12.4114 173.438 13.117C173.841 13.677 174.041 14.37 174.041 15.1932ZM172.605 14.8138C172.616 14.3784 172.517 14.0032 172.313 13.6868C172.052 13.2794 171.654 13.075 171.116 13.075C170.625 13.075 170.224 13.2738 169.918 13.6728C169.668 13.9906 169.521 14.37 169.472 14.8138H172.605Z" fill="white"/>
</svg>
